<svg xmlns="http://www.w3.org/2000/svg" width="42" height="42" fill="none">
    <path fill="#C5478E" fill-rule="evenodd" d="M22.578 15.08h-.865v6.61h1.344c.186-2.908 1.504-3.866 2.681-4.72 1.24-.902 2.311-1.679 2.311-4.964A7.058 7.058 0 0 0 21 4.956a7.058 7.058 0 0 0-7.05 7.05c0 3.285 1.072 4.062 2.313 4.964 1.175.854 2.495 1.812 2.68 4.72h1.343v-6.61h-.863a.714.714 0 0 1 0-1.428h3.156a.714.714 0 0 1 0 1.428Zm-4.983 26.913a.71.71 0 0 1-.616-.356L6.899 24.18c-.191-.333-1.303-2.221-1.37-2.384l-2.112-5.004C1.406 16.638.283 14.977.062 12.657c-.251-2.658.742-6.418 2.62-7.811a.716.716 0 0 1 1.13.363c.056.172.877 2.7 2.554 3.567 3.19 1.65 3.323 3.69 2.597 5.083L12.098 18c.102.14 1.197 2.065 1.379 2.381a.603.603 0 0 1 .065.15l5.362 16.962a.7.7 0 0 1 .02.34l-.627 3.572a.717.717 0 0 1-.702.588ZM7.777 22.849l4.11-2.372-.62-1.07L7.16 21.78l.618 1.07Zm.714 1.234 8.741 15.143.258-1.47L12.447 21.8 8.49 24.083Zm-4.348-8.729c1.309-.12 3.38-1.19 3.716-2.567.29-1.2-1.007-2.156-2.149-2.744-.79-.41-1.42-1.056-1.909-1.728.119 1.298.467 2.735 1.356 3.586.47.451.13 1.228-.493 1.228a.708.708 0 0 1-.493-.198c-1.396-1.335-1.775-3.574-1.84-5.283-.637 1.381-1 3.265-.848 4.874.076.795.355 2.204 1.38 2.688.403.188.85.177 1.28.144Zm.772 1.319 1.614 3.822 3.943-2.276-2.411-3.19c-.83.786-1.986 1.388-3.146 1.644Zm19.488 25.32a.717.717 0 0 1-.702-.588l-.628-3.572a.728.728 0 0 1 .021-.34l5.362-16.963.073-.16c.202-.344 1.26-2.216 1.371-2.367l3.135-4.144c-.726-1.393-.593-3.432 2.6-5.083 1.439-.747 2.33-2.835 2.553-3.577.149-.497.742-.648 1.128-.353 1.878 1.393 2.871 5.153 2.62 7.81-.22 2.321-1.344 3.982-3.353 4.135l-2.111 5.002-.04.081-11.41 19.763a.716.716 0 0 1-.619.356Zm5.709-21.516 4.109 2.372.618-1.07-4.108-2.372-.619 1.07Zm-5.604 17.28.258 1.469 8.743-15.143-3.957-2.283-5.044 15.956Zm9.971-24.265c.76 1.076 2.456 1.885 3.77 1.885.348 0 .648-.056.885-.167 1.026-.484 1.307-1.893 1.382-2.688.153-1.61-.212-3.493-.85-4.874-.064 1.71-.443 3.948-1.836 5.283a.715.715 0 0 1-1.01-.02.715.715 0 0 1 .022-1.01c.888-.851 1.237-2.288 1.355-3.586-.488.675-1.118 1.319-1.909 1.728-1.14.588-2.44 1.544-2.146 2.744.063.263.181.486.337.704Zm-2.953 4.727 3.946 2.276 1.614-3.822c-1.16-.256-2.316-.858-3.146-1.644l-2.414 3.19ZM20.999 2.872a.714.714 0 0 1-.714-.712V.72a.714.714 0 0 1 1.428 0v1.44a.712.712 0 0 1-.714.712Zm5.58 1.497a.716.716 0 0 1-.615-1.07l.718-1.248a.715.715 0 0 1 1.237.714L27.2 4.01a.712.712 0 0 1-.62.358Zm-11.16 0a.712.712 0 0 1-.62-.358l-.718-1.246a.714.714 0 0 1 1.235-.714l.719 1.249a.716.716 0 0 1-.617 1.07Zm9.045 20.412a.714.714 0 0 1-.714.714h-5.502a.712.712 0 0 1-.711-.714v-2.377c0-2.746-.933-3.422-2.114-4.28-1.358-.986-2.9-2.105-2.9-6.118 0-4.674 3.802-8.479 8.476-8.479 4.674 0 8.478 3.805 8.478 8.479 0 4.013-1.541 5.132-2.902 6.118-1.181.858-2.111 1.534-2.111 4.28v2.377Zm-5.502-.712h4.074v-.95h-4.074v.95Zm4.86 3.92h-5.646a.714.714 0 1 1 0-1.425h5.646a.713.713 0 1 1 0 1.426Zm-1.244 2.473h-3.155a.714.714 0 0 1 0-1.428h3.155a.714.714 0 0 1 0 1.428Z" clip-rule="evenodd"/>
</svg>
