<svg xmlns="http://www.w3.org/2000/svg" width="42" height="42" fill="none">
    <g fill="#C5478E">
        <path d="m41.946 36.117-2.269-7.48a16.518 16.518 0 0 0 1.944-7.778c0-9.104-7.407-16.511-16.511-16.511-5.514 0-10.404 2.716-13.404 6.88C5.275 12.077.295 17.593.295 24.25c0 2.123.514 4.215 1.492 6.085L.054 36.047a1.265 1.265 0 0 0 1.578 1.578l5.713-1.733a13.141 13.141 0 0 0 11.591.28 16.517 16.517 0 0 0 13.951-.746l7.48 2.27a1.269 1.269 0 0 0 1.262-.317c.33-.33.452-.815.317-1.261Zm-8.837-3.267a1.266 1.266 0 0 0-1.001.116 13.974 13.974 0 0 1-6.998 1.875c-7.71 0-13.982-6.272-13.982-13.982 0-7.71 6.272-13.981 13.982-13.981 7.709 0 13.981 6.272 13.981 13.981a13.97 13.97 0 0 1-1.875 6.998 1.266 1.266 0 0 0-.116 1.002l1.738 5.728-5.73-1.737Zm-19.68 2.005a10.6 10.6 0 0 1-5.307-1.422 1.265 1.265 0 0 0-1.001-.116l-3.959 1.2 1.2-3.958c.102-.336.06-.698-.115-1.002a10.597 10.597 0 0 1-1.422-5.307c0-4.645 3.003-8.602 7.17-10.033a16.415 16.415 0 0 0-1.397 6.642c0 5.7 2.903 10.735 7.308 13.703-.795.19-1.624.293-2.477.293Z"/>
        <path d="M27.01 24.26h-7.66a1.265 1.265 0 1 0 0 2.53h7.66a1.265 1.265 0 0 0 0-2.53Zm3.86-4.665H19.35a1.265 1.265 0 0 0 0 2.53h11.52a1.265 1.265 0 1 0 0-2.53Zm0-4.665H19.35a1.265 1.265 0 0 0 0 2.53h11.52a1.265 1.265 0 0 0 0-2.53Z"/>
    </g>
</svg>
