<svg xmlns="http://www.w3.org/2000/svg" width="101" height="101" fill="none">
    <path fill="#fff" d="M43.688 53.033c-2.44-2.52-5.117-6.582-3.906-11.72.703-2.987 2.989-5.097 5.43-7.323 1.621-1.485 3.3-3.008 4.55-4.883.215-.332.43-.684.626-1.016 1.562-2.812 1.972-6.328 1.093-9.14-.332-1.055-.82-1.993-1.484-2.793 0 0 0-.02-.02-.02-.449-.566-.566-1.348-.331-2.05.488-1.485.664-3.145.527-4.805-.215-2.48-1.153-4.766-2.617-6.426C45.993 1.06 44 .18 41.93.377c-2.246.195-4.18 1.66-5.352 3.945-1.777-1.153-3.77-1.426-5.488-.664-1.485.703-2.54 2.07-2.969 3.808-1.504-.469-2.969-.351-4.18.41-1.386.86-2.168 2.422-2.246 4.278-1.172-.117-2.285.136-3.203.761-1.308.88-2.031 2.403-2.07 4.2-.684.078-1.328.293-1.875.664-2.48 1.699-2.48 5.86 0 9.472.45.645.957 1.25 1.484 1.758a.755.755 0 0 1 .215.527c-.371 3.184.078 6.29.567 8.79.644 3.222 1.62 5.917 2.968 8.28 3.613 6.29 5.567 13.067 5.508 19.083-.039 3.594 1.797 7.187 4.746 9.375 1.914 1.406 4.336 2.129 6.816 2.129 2.169 0 4.376-.547 6.31-1.66 2.89-1.66 4.804-4.356 5.39-7.579.996-5.292-.801-10.722-4.864-14.921ZM42.165 3.208c1.133-.097 2.285.45 3.242 1.543 1.074 1.211 1.758 2.93 1.914 4.825a9.181 9.181 0 0 1-.39 3.671 5.745 5.745 0 0 0-.157.547c-2.5-1.113-5.273-1.289-8.066-1.054a10.21 10.21 0 0 1-.508-2.344 9.817 9.817 0 0 1 .274-3.32c.664-2.227 2.05-3.711 3.691-3.868Zm-9.922 3.047c.957-.43 2.246-.078 3.36.899a11.538 11.538 0 0 0-.176 3.496c.078.84.234 1.66.468 2.46-.527.079-1.035.177-1.543.274-.663.117-1.308.274-1.933.43a8 8 0 0 1-1.055-1.66 6.577 6.577 0 0 1-.625-2.598c-.078-1.582.508-2.852 1.504-3.3Zm-6.797 4.004c.625-.39 1.563-.312 2.52.176.117.976.39 1.953.82 2.871.215.469.469.938.762 1.367a26.476 26.476 0 0 0-3.692 1.66 2.549 2.549 0 0 1-.195-.293c-.45-.722-.8-1.523-.976-2.285-.391-1.601-.079-2.969.761-3.496Zm-5.351 4.961c.508-.352 1.23-.39 2.031-.117.273.84.644 1.66 1.133 2.441.058.098.136.196.195.293a19.851 19.851 0 0 0-3.164 2.793 7.01 7.01 0 0 1-.918-2.265c-.312-1.426-.039-2.617.723-3.145Zm-3.223 10.45c-1.621-2.364-1.719-4.884-.742-5.548a1.55 1.55 0 0 1 .703-.214c.293.918.762 1.835 1.328 2.675.098.137.195.274.293.391a15.618 15.618 0 0 0-1.406 2.95 1.511 1.511 0 0 0-.176-.255Zm28.945 41.796c-.43 2.403-1.855 4.395-4.023 5.625-3.164 1.797-7.383 1.68-10.059-.293-2.207-1.64-3.633-4.414-3.613-7.09.059-6.523-2.031-13.808-5.898-20.507-1.192-2.07-2.051-4.512-2.637-7.422-1.309-6.563-.606-11.211 2.227-14.649 2.87-3.457 7.5-5.937 13.027-6.992 3.886-.723 7.91-1.191 11.054.352.723.351 1.348.84 1.817 1.425.45.547.781 1.192 1.015 1.915.665 2.109.333 4.746-.878 6.914-.157.273-.313.546-.489.8-1.054 1.582-2.539 2.93-4.101 4.375-2.637 2.422-5.371 4.922-6.27 8.77-1.172 5.039.43 10 4.649 14.336 3.496 3.555 4.98 7.988 4.18 12.441Z"/>
    <path fill="#fff" d="M87.086 44.263c-.488-.449-1.094-.742-1.758-.918.196-1.797-.332-3.398-1.504-4.453-.82-.742-1.894-1.133-3.086-1.172.157-1.855-.41-3.496-1.68-4.531-1.093-.898-2.538-1.23-4.081-.957-.215-1.777-1.055-3.262-2.422-4.121-1.602-.996-3.613-.977-5.528-.059-.878-2.402-2.597-4.101-4.804-4.59-2.012-.449-4.102.176-5.899 1.739-1.66 1.465-2.87 3.613-3.418 6.035-.37 1.621-.41 3.3-.117 4.844.137.742-.078 1.484-.605 1.992 0 0 0 .02-.02.02a8.423 8.423 0 0 0-1.816 2.578c-1.25 2.675-1.29 6.21-.098 9.199.137.351.313.722.489 1.093.995 2.012 2.46 3.75 3.867 5.43 2.128 2.52 4.12 4.902 4.433 7.969.528 5.234-2.656 8.926-5.41 11.113-4.59 3.614-7.07 8.79-6.816 14.16.156 3.282 1.699 6.192 4.355 8.223 2.227 1.7 5 2.578 7.695 2.578 1.915 0 3.77-.43 5.391-1.328 3.223-1.797 5.488-5.117 5.938-8.691.742-5.977 3.554-12.442 7.949-18.203 1.64-2.149 2.949-4.708 4.004-7.813.82-2.402 1.66-5.43 1.699-8.633a.795.795 0 0 1 .293-.488c.605-.45 1.172-.957 1.7-1.543 2.948-3.34 3.495-7.461 1.25-9.473Zm-4.844-.058a7.008 7.008 0 0 1-1.21 2.109 20.127 20.127 0 0 0-2.774-3.164c.078-.098.156-.176.234-.273a10.347 10.347 0 0 0 1.446-2.266c.82-.156 1.543-.02 1.992.371.683.625.8 1.855.312 3.223Zm-4.98-8.828c.762.624.898 2.03.332 3.554-.273.742-.723 1.485-1.27 2.149a3.405 3.405 0 0 1-.234.273 27.74 27.74 0 0 0-3.457-2.129c.332-.39.645-.8.918-1.25.527-.86.938-1.797 1.191-2.754 1.016-.351 1.953-.312 2.52.157Zm-6.211-4.864c.918.586 1.348 1.914 1.074 3.477-.137.84-.469 1.699-.957 2.5a7.21 7.21 0 0 1-1.25 1.504 52.177 52.177 0 0 0-1.855-.684c-.489-.156-.996-.312-1.504-.469a12.42 12.42 0 0 0 .781-2.363c.273-1.172.352-2.344.273-3.496 1.23-.82 2.54-1.016 3.438-.469Zm-15.39 1.328c.41-1.855 1.308-3.457 2.538-4.53 1.094-.958 2.305-1.349 3.418-1.114 1.602.351 2.813 2.012 3.125 4.316.157 1.055.098 2.207-.156 3.32a9.011 9.011 0 0 1-.82 2.266c-2.735-.605-5.508-.781-8.125 0a5.645 5.645 0 0 0-.078-.566 9.09 9.09 0 0 1 .097-3.692Zm23.827 31.582c-.957 2.813-2.129 5.118-3.593 7.012-4.688 6.153-7.715 13.106-8.516 19.57-.332 2.637-2.09 5.215-4.492 6.563-2.91 1.602-7.11 1.191-10-1.016-1.973-1.504-3.145-3.672-3.262-6.113-.215-4.512 1.817-8.71 5.742-11.816 4.746-3.75 6.973-8.438 6.465-13.594-.39-3.926-2.773-6.758-5.078-9.492-1.367-1.621-2.656-3.164-3.496-4.864-.137-.293-.274-.586-.39-.859-.919-2.305-.9-4.98.038-6.973.332-.703.743-1.289 1.27-1.777a5.384 5.384 0 0 1 1.992-1.172c1.016-.351 2.11-.488 3.223-.488 2.52 0 5.195.742 7.793 1.582.82.273 1.62.566 2.402.898.04.02.059.02.098.04 2.129.917 4.043 2.07 5.664 3.398 1.562 1.27 2.851 2.715 3.847 4.277 2.344 3.79 2.442 8.496.293 14.824Zm4.278-11.66a3.093 3.093 0 0 0-.235.254 15.51 15.51 0 0 0-.996-3.105c.118-.117.235-.235.332-.352a10.209 10.209 0 0 0 1.66-2.48c.254.039.489.117.684.293.879.78.45 3.28-1.445 5.39Z"/>
</svg>
