<svg xmlns="http://www.w3.org/2000/svg" width="100" height="101" fill="none">
    <path fill="#7D2C55" d="M25.701 29.638a4.82 4.82 0 0 0-4.814 4.814 4.82 4.82 0 0 0 4.814 4.815 4.82 4.82 0 0 0 4.815-4.815 4.82 4.82 0 0 0-4.815-4.814Zm0 6.42a1.607 1.607 0 0 1 0-3.21c.886 0 1.605.72 1.605 1.604 0 .885-.719 1.605-1.605 1.605Zm19.259-6.42a4.82 4.82 0 0 0-4.816 4.814 4.82 4.82 0 0 0 4.815 4.815 4.82 4.82 0 0 0 4.815-4.815 4.82 4.82 0 0 0-4.815-4.814Zm0 6.42a1.607 1.607 0 0 1 0-3.21 1.606 1.606 0 0 1-.001 3.209Zm-10.958 9.629h-3.486v3.21h3.486a12.47 12.47 0 0 0 8.883-3.68l-2.27-2.27a9.29 9.29 0 0 1-6.614 2.74Z"/>
    <path fill="#7D2C55" d="M62.614 22.135c0-10.023-8.153-18.175-18.174-18.175H28.063c-4.447 0-8.9-1.052-12.877-3.042L13.852.254l-.89 1.49a34.478 34.478 0 0 0-3.146 28.648l.32.959c-1.276 1.173-2.09 2.842-2.09 4.707 0 3.54 2.88 6.42 6.42 6.42h.582c1.506 6.337 5.9 11.558 11.72 14.19l-.702 2.104a15.739 15.739 0 0 0-10.896 10.22l-1.327 3.978h6.148l-.55.553 1.526 1.523c.703.703.443 1.516.348 1.747-.098.233-.49.992-1.484.992h-2.156v9.63h2.156c.995 0 1.386.759 1.484.991.097.233.357 1.045-.346 1.747l-1.528 1.524 6.808 6.81 1.526-1.523c.701-.703 1.517-.443 1.75-.348.23.096.99.487.99 1.483v2.155h9.629v-2.156c0-.995.76-1.386.99-1.482.231-.097 1.045-.357 1.751.35l1.525 1.52 6.808-6.809-1.526-1.523c-.703-.703-.443-1.516-.349-1.748.098-.232.49-.991 1.485-.991h2.155v-9.63H50.83c-.995 0-1.387-.759-1.485-.992-.096-.232-.356-1.044.347-1.746l1.528-1.524-.552-.552h6.148l-1.327-3.979a15.739 15.739 0 0 0-10.896-10.22l-.701-2.104c5.82-2.632 10.213-7.853 11.719-14.19h.584c3.54 0 6.42-2.88 6.42-6.42 0-1.867-.814-3.534-2.09-4.71l1.156-3.466c.62-1.855.934-3.789.934-5.747ZM14.467 39.267c-1.77 0-3.21-1.44-3.21-3.21s1.44-3.21 3.21-3.21v4.816c0 .542.04 1.073.081 1.605h-.082Zm3.835 30.494c1.36-3.81 4.505-6.702 8.37-7.8l3.843 5.124v.016c0 .995-.759 1.387-.99 1.483-.234.098-1.044.355-1.75-.35l-1.525-1.521-3.046 3.048h-4.902Zm31.472 11.123v3.433c-1.52.328-2.775 1.363-3.394 2.862-.621 1.499-.467 3.115.377 4.423l-2.426 2.426c-1.308-.842-2.925-.998-4.425-.377s-2.533 1.873-2.86 3.395h-3.433c-.327-1.52-1.363-2.774-2.86-3.395-1.497-.62-3.117-.467-4.425.377L23.903 91.6c.845-1.306.999-2.924.378-4.423-.62-1.497-1.875-2.532-3.395-2.861v-3.432c1.52-.327 2.775-1.362 3.395-2.861.62-1.5.466-3.115-.378-4.423l2.427-2.427c1.306.843 2.923 1 4.425.377 1.499-.62 2.532-1.873 2.86-3.394h3.432c.328 1.52 1.363 2.773 2.86 3.394 1.5.621 3.119.469 4.425-.377L46.76 73.6c-.844 1.306-.998 2.924-.377 4.423.617 1.499 1.873 2.534 3.392 2.861Zm2.584-11.123h-4.901l-3.046-3.048-1.526 1.523c-.702.703-1.515.445-1.75.348-.23-.096-.99-.488-.99-1.483v-.016l3.844-5.124c3.864 1.098 7.01 3.99 8.37 7.8Zm-10.791-9.92-3.83 5.105h-4.814l-3.83-5.105.695-2.085c1.77.488 3.621.77 5.542.77 1.921 0 3.773-.282 5.542-.77l.695 2.085Zm11.417-22.178c0 9.733-7.92 17.654-17.654 17.654-9.733 0-17.654-7.92-17.654-17.654v-9.208c0-1.425.958-2.694 2.327-3.086l5.3-1.513a6.269 6.269 0 0 0 5.06 2.574h19.411c1.77 0 3.21 1.44 3.21 3.21v8.023Zm3.21 1.605h-.082c.04-.532.082-1.063.082-1.605v-4.815c1.77 0 3.21 1.44 3.21 3.21s-1.44 3.21-3.21 3.21Zm0-9.63c0-3.54-2.88-6.42-6.42-6.42h-19.41a3.061 3.061 0 0 1-3.058-3.058c0-1.318.84-2.485 2.092-2.902l1.626-.543-1.016-3.044-1.625.542a6.261 6.261 0 0 0-4.25 6.638l-5.01 1.432a6.445 6.445 0 0 0-4.657 6.172v1.183a6.41 6.41 0 0 0-1.457.181l-.147-.44a31.285 31.285 0 0 1 2.255-24.945 32.177 32.177 0 0 0 12.945 2.735h16.376c8.252 0 14.964 6.714 14.964 14.966a14.91 14.91 0 0 1-.769 4.733l-.983 2.953a6.296 6.296 0 0 0-1.456-.183ZM84.256 85.61c2.44-1.75 4.037-4.6 4.037-7.824 0-5.311-4.32-9.63-9.63-9.63-5.31 0-9.63 4.319-9.63 9.63 0 3.222 1.598 6.074 4.037 7.824a11.853 11.853 0 0 0-5.935 7.596l-1.762 7.048h26.579l-1.762-7.048a11.846 11.846 0 0 0-5.934-7.596Zm-12.012-7.824c0-3.54 2.879-6.42 6.42-6.42 3.54 0 6.419 2.88 6.419 6.42s-2.88 6.42-6.42 6.42-6.42-2.88-6.42-6.42Zm-1.995 16.198a8.654 8.654 0 0 1 6.81-6.41v9.47h-7.576l.766-3.06Zm10.02 3.06v-9.47a8.652 8.652 0 0 1 6.809 6.41l.765 3.06h-7.575Zm3.987-45.137c2.44-1.75 4.037-4.6 4.037-7.824 0-5.311-4.32-9.63-9.63-9.63-5.31 0-9.63 4.319-9.63 9.63 0 3.222 1.598 6.074 4.037 7.824a11.853 11.853 0 0 0-5.935 7.596l-1.762 7.048h26.579l-1.762-7.049a11.846 11.846 0 0 0-5.934-7.596Zm-12.012-7.824c0-3.54 2.879-6.42 6.42-6.42 3.54 0 6.419 2.88 6.419 6.42s-2.88 6.42-6.42 6.42-6.42-2.88-6.42-6.42ZM70.249 60.28a8.654 8.654 0 0 1 6.81-6.41v9.47h-7.576l.766-3.06Zm10.02 3.06v-9.47a8.652 8.652 0 0 1 6.809 6.41l.765 3.06h-7.575Zm9.922-37.54a11.853 11.853 0 0 0-5.935-7.597c2.44-1.749 4.037-4.6 4.037-7.824 0-5.31-4.32-9.629-9.63-9.629-5.31 0-9.63 4.319-9.63 9.63 0 3.222 1.598 6.074 4.037 7.823a11.853 11.853 0 0 0-5.935 7.596l-1.762 7.05h26.579l-1.76-7.05ZM72.244 10.38a6.426 6.426 0 0 1 6.42-6.42 6.426 6.426 0 0 1 6.419 6.42c0 3.54-2.88 6.419-6.42 6.419s-6.42-2.88-6.42-6.42Zm-1.995 16.198a8.654 8.654 0 0 1 6.81-6.41v9.47h-7.576l.766-3.06Zm10.02 3.06v-9.47a8.652 8.652 0 0 1 6.809 6.41l.765 3.06h-7.575Z"/>
</svg>
