<svg xmlns="http://www.w3.org/2000/svg" width="101" height="101" fill="none">
    <path fill="#7D2C55" d="M18.242 60.57c0 4.448 3.618 8.065 8.065 8.065 4.446 0 8.064-3.617 8.064-8.064v-1.613H18.242v1.613Zm12.627 1.614a4.848 4.848 0 0 1-4.562 3.226 4.848 4.848 0 0 1-4.563-3.226h9.125Zm-15.852-9.678a3.229 3.229 0 0 1 3.226-3.225 3.229 3.229 0 0 1 3.225 3.225h3.226a6.458 6.458 0 0 0-6.451-6.451 6.458 6.458 0 0 0-6.452 6.451h3.226Zm19.354-3.226a3.229 3.229 0 0 1 3.226 3.226h3.226a6.458 6.458 0 0 0-6.452-6.451 6.458 6.458 0 0 0-6.451 6.451h3.226a3.229 3.229 0 0 1 3.225-3.225Z"/>
    <path fill="#7D2C55" d="M95.66 7.346h-1.613V4.12A3.229 3.229 0 0 0 90.821.895h-3.225A3.23 3.23 0 0 0 84.37 4.12v3.226h-3.226V4.12A3.229 3.229 0 0 0 77.918.895h-3.225a3.229 3.229 0 0 0-3.226 3.225v3.226H68.24V4.12A3.229 3.229 0 0 0 65.015.895H61.79a3.229 3.229 0 0 0-3.225 3.225v3.226h-3.226V4.12A3.229 3.229 0 0 0 52.112.895h-3.226a3.229 3.229 0 0 0-3.225 3.225v3.226h-3.226V4.12A3.229 3.229 0 0 0 39.209.895h-3.226a3.229 3.229 0 0 0-3.225 3.225v3.226h-1.613a4.845 4.845 0 0 0-4.839 4.839v4.838C12.077 17.023.5 28.601.5 42.83V76.7c0 8.005 6.513 14.516 14.516 14.516h.129c.786 5.463 5.484 9.679 11.161 9.679H39.21c2.1 0 3.874-1.354 4.542-3.226h5.135c2.1 0 3.874-1.353 4.542-3.228h11.587v-22.58H52.112V65.41H95.66a4.844 4.844 0 0 0 4.838-4.84V12.186a4.843 4.843 0 0 0-4.838-4.839ZM87.596 4.12h3.225l.002 9.678h-3.227V4.12Zm-12.903 0h3.225l.002 9.678h-3.227V4.12Zm-12.903 0h3.225l.002 9.678H61.79V4.12Zm-12.904 0h3.226l.002 9.678h-3.227V4.12Zm-12.902 0h3.225l.002 9.678h-3.227V4.12Zm-6.452 8.065c0-.89.724-1.613 1.613-1.613h1.613v3.226a3.229 3.229 0 0 0 3.226 3.225h3.225a3.229 3.229 0 0 0 3.226-3.225v-3.226h3.226v3.226a3.229 3.229 0 0 0 3.226 3.225h3.225a3.229 3.229 0 0 0 3.226-3.225v-3.226h3.226v3.226a3.229 3.229 0 0 0 3.226 3.225h3.226a3.229 3.229 0 0 0 3.225-3.225v-3.226h3.226v3.226a3.229 3.229 0 0 0 3.226 3.225h3.226a3.229 3.229 0 0 0 3.225-3.225v-3.226h3.226v3.226a3.229 3.229 0 0 0 3.226 3.225h3.226a3.229 3.229 0 0 0 3.226-3.225v-3.226h1.613c.888 0 1.612.723 1.612 1.613v8.064h-58.5a25.62 25.62 0 0 0-9.241-3.001v-5.063Zm11.29 83.87c0 .891-.724 1.614-1.613 1.614H26.306c-4.446 0-8.064-3.618-8.064-8.065v-9.679a4.845 4.845 0 0 1 4.838-4.838v.003h.033a4.798 4.798 0 0 1 3.388 1.414 4.8 4.8 0 0 1 1.418 3.421v5.966l-2.953 4.433 2.684 1.788 2.745-4.12h8.814c.889 0 1.613.722 1.613 1.612v6.452Zm-25.046-57.51c2.04 2.603 5.204 4.285 8.76 4.285h17.9v17.742c0 6.224-5.067 11.29-11.291 11.29h-9.677c-6.226 0-11.29-5.066-11.29-11.292V45.132a6.49 6.49 0 0 1 4.125-6.017l1.473-.571Zm14.42 37.662.963.413a10.603 10.603 0 0 1 6.31 8.148h-6.327l.003-4.841c0-1.323-.352-2.58-.948-3.72ZM50.5 92.83c0 .89-.724 1.613-1.613 1.613h-4.838v-4.456l.551-1.104c.275-.551.83-.893 1.442-.893h1.234v.001h1.611c.889 0 1.613.723 1.613 1.612v3.227Zm11.29-1.614h-8.064v-1.612c0-.567-.116-1.106-.297-1.613l5.136-.001v-3.226l-9.678.003v-9.68H61.79v16.129ZM45.662 71.86v12.93a4.78 4.78 0 0 0-3.032 1.394 4.856 4.856 0 0 0-1.905-1.151 13.796 13.796 0 0 0-6.324-10.33c6.438-1.481 11.26-7.25 11.26-14.133V41.217a11.1 11.1 0 0 0-9.302-10.982l-1.723-.287-.529 3.182 1.721.287a7.879 7.879 0 0 1 6.443 6.187H24.535c-4.36 0-7.906-3.547-7.906-7.906v-.159l-3.226.159c0 1.416.276 2.766.76 4.012l-1.024.395c-3.7 1.431-6.187 5.059-6.187 9.028V60.57c0 6.52 4.32 12.048 10.25 13.875-1.346 1.44-2.186 3.36-2.186 5.48v8.065c-6.226 0-11.29-5.066-11.29-11.29V42.83c0-12.452 10.129-22.581 22.58-22.581 12.451 0 22.58 10.129 22.58 22.58v29.032h-3.225Zm12.903-25.806h-6.452V42.83c0-1.095-.09-2.166-.224-3.226h6.676v6.452Zm3.226-6.452h12.903v6.452H61.79v-6.452Zm-9.678 9.678h6.452v6.451h-6.452V49.28Zm9.678 0h12.903v6.451H61.79V49.28Zm16.128 0h12.903v6.451H77.918V49.28Zm12.903-3.226H77.918v-6.452h12.903v6.452Zm0-9.677H77.918v-6.452h12.903v6.452Zm-16.128 0H61.79v-6.452h12.903v6.452Zm-16.13 0h-7.3a25.621 25.621 0 0 0-2.642-6.452h9.943v6.452ZM95.66 62.184H52.112v-3.226h41.935V26.701H46.42a25.95 25.95 0 0 0-3.102-3.226h53.956V60.57c0 .89-.724 1.613-1.613 1.613Z"/>
    <path fill="#7D2C55" d="M52.113 78.313h6.452v3.225h-6.452v-3.225Zm40.32-6.452H74.692v13.066c-3.676.75-6.452 4.007-6.452 7.902 0 4.446 3.618 8.064 8.065 8.064h17.741V87.827c3.676-.75 6.452-4.006 6.452-7.901 0-4.447-3.618-8.065-8.065-8.065ZM90.82 97.667H76.305a4.845 4.845 0 0 1-4.839-4.838 4.845 4.845 0 0 1 4.839-4.839H90.82v9.677Zm1.613-12.903H77.918v-9.677h14.515a4.845 4.845 0 0 1 4.84 4.839 4.845 4.845 0 0 1-4.84 4.838Z"/>
    <path fill="#7D2C55" d="M74.693 91.216h12.903v3.226H74.693v-3.226Zm6.451-12.903h12.903v3.225H81.144v-3.225Z"/>
</svg>
