<svg xmlns="http://www.w3.org/2000/svg" width="101" height="101" fill="none">
    <path fill="#7d2c55" d="M96.231 74.51V64.125a4.737 4.737 0 0 0-4.73-4.73h-7.885v-6.31H94l-2.038 2.04 2.23 2.23 5.845-5.847-5.846-5.846-2.23 2.23 2.04 2.04H83.615v-6.309H91.5a4.737 4.737 0 0 0 4.731-4.73V28.508l2.04 2.04 2.229-2.23-5.846-5.847-5.845 5.846 2.23 2.23 2.038-2.04v10.388c0 .87-.708 1.577-1.577 1.577h-7.884V31.01a3.157 3.157 0 0 0-3.154-3.154h-3.28c.074-.517.126-1.04.126-1.577v-9.905l-1.96.49a51.266 51.266 0 0 1-12.426 1.53H52.077c-7.946 0-15.036 3.701-19.664 9.462H20.538a3.157 3.157 0 0 0-3.154 3.154v9.462H9.5a1.578 1.578 0 0 1-1.577-1.577V28.508l2.039 2.04 2.23-2.23-5.846-5.847L.5 28.317l2.23 2.23 2.039-2.04v10.388a4.737 4.737 0 0 0 4.73 4.73h7.885v6.308H7l2.039-2.039-2.23-2.23L.963 51.51l5.846 5.846 2.23-2.23-2.04-2.039h10.386v6.308H9.5a4.737 4.737 0 0 0-4.731 4.73v10.386l-2.04-2.039L.5 74.702l5.846 5.845 5.845-5.846-2.23-2.23-2.038 2.04V64.125c0-.87.708-1.577 1.577-1.577h7.884v6.307a3.157 3.157 0 0 0 3.154 3.154h15.82a18.95 18.95 0 0 0-2.39 3.36v-.206h-7.122a3.157 3.157 0 0 0-3.154 3.154v3.154a3.157 3.157 0 0 0 3.154 3.154h47.308a3.157 3.157 0 0 0 3.154-3.154v-3.154a3.157 3.157 0 0 0-3.154-3.154h-7.121v.18a18.873 18.873 0 0 0-2.38-3.334h15.809a3.157 3.157 0 0 0 3.154-3.154v-6.307H91.5c.87 0 1.577.706 1.577 1.577V74.51l-2.039-2.039-2.23 2.23 5.846 5.847L100.5 74.7l-2.23-2.23-2.039 2.04zM52.077 21.547h10.845c3.772 0 7.54-.394 11.232-1.173v5.904c0 4.348-3.537 7.885-7.885 7.885h-9.461a1.58 1.58 0 0 1-1.577-1.576 1.58 1.58 0 0 1 1.577-1.578h.27c.42 0 .818.165 1.116.463l.653.653 2.23-2.23-.653-.653a4.697 4.697 0 0 0-3.347-1.386h-.27a4.737 4.737 0 0 0-4.73 4.73c0 .726.178 1.406.47 2.02a9.9 9.9 0 0 0-3.624 7.636v1.383a6.314 6.314 0 0 0-6.308 6.308 6.315 6.315 0 0 0 6.299 6.308c-.08 3.054-.675 6.035-1.718 8.9C37.367 62.91 30 54.119 30 43.625c0-12.173 9.903-22.076 22.077-22.076zm13.37 37.847h-7.062v3.155h4.17a14.122 14.122 0 0 1-8.901 3.153h-1.577c-.577 0-1.142-.042-1.708-.086 1.112-3.261 1.708-6.65 1.708-10.12v-2.41h-3.154a3.157 3.157 0 0 1-3.154-3.153 3.157 3.157 0 0 1 3.154-3.154h6.308v3.154a3.157 3.157 0 0 0 3.154 3.154h9.368a14.085 14.085 0 0 1-2.307 6.308zm-5.024 16.232a6.919 6.919 0 0 0-2.038 4.921v.925h-15.77v-.924c0-1.86-.723-3.608-2.036-4.923l-2.233 2.23a3.779 3.779 0 0 1 1.116 2.693v.924H34.99A15.79 15.79 0 0 1 50.5 68.856a15.788 15.788 0 0 1 15.511 12.616H61.54v-.924c0-1.018.396-1.974 1.117-2.693l-2.233-2.23zm-2.04-25.694v-6.306H71l.002 6.308H58.385Zm0-9.461a3.157 3.157 0 0 0-3.153 3.154h-3.154V42.24a6.761 6.761 0 0 1 2.701-5.4 4.668 4.668 0 0 0 2.03.476h9.461c.536 0 1.06-.052 1.577-.127v3.28h-9.461zM20.537 31.01h9.722c-2.157 3.717-3.414 8.017-3.414 12.615 0 10.76 6.784 19.944 16.288 23.565a18.881 18.881 0 0 0-3.117 1.666H20.538V31.01zm6.308 47.308h5.781a19.258 19.258 0 0 0-.833 3.153h-4.948zm47.308 0v3.153H69.21a18.935 18.935 0 0 0-.824-3.154h5.768zm6.308-9.463H60.99a18.89 18.89 0 0 0-1.648-.977c6.3-2.197 10.955-7.913 11.578-14.792H71a3.157 3.157 0 0 0 3.154-3.154v-6.307A3.157 3.157 0 0 0 71 40.471v-4.234a11.094 11.094 0 0 0 5.228-5.228h4.234v37.846z"/>
</svg>
