<svg xmlns="http://www.w3.org/2000/svg" width="80" height="81" fill="none">
    <path fill="#fff" fill-rule="evenodd" d="M39.835.876C17.857.876 0 18.733 0 40.711S17.858 80.56 39.837 80.547a39.747 39.747 0 0 0 22.797-7.225 1.896 1.896 0 1 0-2.179-3.105 35.957 35.957 0 0 1-20.621 6.536c-19.927.011-36.04-16.114-36.04-36.042 0-19.927 16.114-36.041 36.041-36.041 19.928 0 36.046 16.114 36.042 36.041a36.01 36.01 0 0 1-6.515 20.64 1.897 1.897 0 1 0 3.108 2.175 39.805 39.805 0 0 0 7.2-22.815C79.676 18.733 61.814.876 39.836.876Zm0 7.588c-4.149 0-8.257.812-12.096 2.373a1.897 1.897 0 1 0 1.43 3.516 28.353 28.353 0 0 1 10.666-2.095C55.572 12.252 68.29 24.974 68.29 40.71S55.572 69.165 39.835 69.165 11.376 56.448 11.382 40.711a28.343 28.343 0 0 1 2.097-10.666 1.897 1.897 0 1 0-3.516-1.43A32.146 32.146 0 0 0 7.588 40.71c-.006 17.79 14.46 32.25 32.247 32.25 17.788 0 32.248-14.46 32.248-32.248 0-17.787-14.46-32.253-32.248-32.247Zm-7.354 15.19c-3.208-.13-5.924 2.48-5.922 5.69v22.764c-.001 4.33 4.904 7.107 8.617 4.88l18.968-11.386c3.615-2.167 3.615-7.6 0-9.766l-18.96-11.37a5.704 5.704 0 0 0-2.703-.812Zm-.154 3.786c.317.013.624.11.897.274h.006L52.197 39.09c1.303.781 1.303 2.476 0 3.257L33.229 53.73c-1.347.809-2.877-.051-2.876-1.622V29.345c-.001-1.105.871-1.95 1.974-1.905Zm34.364 38.202a1.895 1.895 0 0 0-1.371 3.238 1.897 1.897 0 1 0 1.37-3.238Z" clip-rule="evenodd"/>
</svg>
