<svg xmlns="http://www.w3.org/2000/svg" width="80" height="81" fill="none">
    <path fill="#fff" d="M73.574 30.493a10.96 10.96 0 0 0 2.555-7.036v-9.678C76.129 6.664 70.34.876 63.225.876c-4.557 0-8.567 2.377-10.863 5.954C51.1 3.36 47.77.876 43.87.876h-7.74a9.04 9.04 0 0 0-7.949 4.746C26.415 2.776 23.264.876 19.677.876H13.87c-5.514 0-10 4.486-10 10v5.325l-1.112 4.45a5.955 5.955 0 0 0-.178 1.445v.41c0 2.008.986 3.837 2.618 4.936a7.724 7.724 0 0 0 1.042 3.184 9.018 9.018 0 0 0-3.66 7.263v6.213c0 3.575 2.249 6.632 5.405 7.837a14.398 14.398 0 0 0-2.824 8.605v4.848h2.58v9.904a5.778 5.778 0 0 0-1.29 3.644v1.936h20.645V78.94a5.78 5.78 0 0 0-1.29-3.644v-9.904h2.58V56.67c.755.506 1.634.84 2.581.945v17.683a5.778 5.778 0 0 0-1.29 3.644v1.935h20.645v-1.935c0-1.38-.484-2.647-1.29-3.644V57.613a5.816 5.816 0 0 0 5.124-5.124h.037v22.807a5.777 5.777 0 0 0-1.29 3.644v1.936h20.645V78.94a5.78 5.78 0 0 0-1.29-3.644V51.843c3.027-1.267 5.16-4.26 5.16-7.741v-6.213a9.018 9.018 0 0 0-3.844-7.396ZM63.225 3.457c5.692 0 10.323 4.63 10.323 10.322v9.678a8.38 8.38 0 0 1-2.374 5.842 9.236 9.236 0 0 0-.597-.173l-3.481-.87v-.883l.424-.283a7.726 7.726 0 0 0 3.447-6.441v-6.87a6.653 6.653 0 0 0-4.555-6.32l-.198-.065-.816 2.448.198.066a4.074 4.074 0 0 1 2.581 2.58h-1.08a4.91 4.91 0 0 1-3.494-1.446l-1.668-1.668-1.669 1.668a4.907 4.907 0 0 1-3.492 1.447h-1.29v8.16a7.726 7.726 0 0 0 3.447 6.442l.423.282v.883l-3.48.87a9.1 9.1 0 0 0-.597.173 8.38 8.38 0 0 1-2.374-5.842v-9.678c0-5.692 4.63-10.322 10.322-10.322Zm-2.44 21.769-.423-.282a5.151 5.151 0 0 1-2.298-4.295v-5.69a7.46 7.46 0 0 0 3.87-1.94 7.469 7.469 0 0 0 5.162 2.05h1.29v5.58a5.15 5.15 0 0 1-2.297 4.294l-.424.283a2.575 2.575 0 0 0-1.15 2.147v2.897l2.248.562a3.877 3.877 0 0 1-3.538 2.302 3.877 3.877 0 0 1-3.538-2.302l2.248-.562v-2.897c0-.865-.43-1.668-1.15-2.147Zm-14.334 13.07v11.611H33.548V38.295h-2.58v5.384a3.852 3.852 0 0 0-1.291-.222h-1.29v-5.568a6.441 6.441 0 0 1 4.401-6.117l2.836 7.563 4.375-4.376 4.376 4.375 2.836-7.562a6.441 6.441 0 0 1 4.401 6.117v5.568h-1.29c-.452 0-.886.078-1.29.222v-5.384H46.45ZM19.637 24.942l-.424.283a2.575 2.575 0 0 0-1.15 2.147v1.5l-1.29 1.935-1.29-1.936v-1.5c0-.864-.43-1.667-1.15-2.146l-.422-.282a5.151 5.151 0 0 1-2.299-4.295V14.99a10.636 10.636 0 0 0 4.801-1.84 9.295 9.295 0 0 0 5.522 1.918v5.58c0 1.73-.86 3.335-2.298 4.294Zm1.007 2.43.424-.282a7.726 7.726 0 0 0 3.448-6.442v-.418h1.29c.76 0 1.47-.221 2.068-.602l.412 1.648c.067.267.1.543.1.819v.41a3.36 3.36 0 0 1-1.867 3.022l-.713.357v.797c0 .97-.272 1.91-.777 2.723a9.072 9.072 0 0 0-.903-.279l-3.482-.87v-.883Zm3.872-12.304h1.29c.711 0 1.29.58 1.29 1.29 0 .712-.579 1.291-1.29 1.291h-1.29v-2.58Zm7.742 2.581h-1.29a1.29 1.29 0 0 1-1.072-.571l-.213-.851a1.292 1.292 0 0 1 1.284-1.159h1.29v2.581Zm-3.909 9.792a5.922 5.922 0 0 0 2.618-4.935v-.411c0-.487-.06-.973-.178-1.445l-.108-.432c.095.007.19.012.286.012h1.29v.418a7.726 7.726 0 0 0 3.448 6.442l.423.282v.883l-3.48.87a9.018 9.018 0 0 0-4.263 2.44 8.99 8.99 0 0 0-1.079-.938 7.723 7.723 0 0 0 1.043-3.186Zm14.8 3.293 1.55.388-1.333 3.553-1.706-1.706 1.49-2.235Zm-.286-5.792-.424.283a2.575 2.575 0 0 0-1.15 2.147v1.5L40 30.807l-1.29-1.936v-1.5c0-.864-.43-1.667-1.15-2.146l-.423-.282a5.151 5.151 0 0 1-2.298-4.295v-5.635A10 10 0 0 0 40 12.921a10.002 10.002 0 0 0 5.162 2.093v5.635c0 1.73-.86 3.335-2.298 4.294Zm-6.013 5.792 1.49 2.234-1.707 1.706-1.332-3.553 1.549-.387Zm-9.754 19.173v-3.336l.157-.157c.244-.244.568-.378.912-.378h1.512c.711 0 1.29.579 1.29 1.29v1.29c0 .712-.579 1.291-1.29 1.291h-2.58Zm21.936-2.58c0-.712.579-1.29 1.29-1.29h1.512c.344 0 .668.134.912.377l.157.157v3.336h-2.581c-.711 0-1.29-.579-1.29-1.29v-1.29Zm-1.68-18.202-3.482-.87v-.883l.424-.283a7.725 7.725 0 0 0 3.447-6.441v-.418h1.29a3.86 3.86 0 0 0 1.291-.222v3.448c0 2.592.915 5.076 2.555 7.036a8.99 8.99 0 0 0-1.263 1.073 9.018 9.018 0 0 0-4.263-2.44Zm.39-14.057h1.29c.711 0 1.29.58 1.29 1.29 0 .712-.579 1.291-1.29 1.291h-1.29v-2.58ZM36.128 3.457h7.741a6.459 6.459 0 0 1 6.452 6.451c0 .92-.197 1.82-.57 2.649a3.88 3.88 0 0 0-.72-.068H46.23a7.472 7.472 0 0 1-5.318-2.203l-.913-.912-.912.912a7.472 7.472 0 0 1-5.318 2.203h-2.801a3.88 3.88 0 0 0-.72.068 6.433 6.433 0 0 1-.571-2.649 6.459 6.459 0 0 1 6.452-6.451Zm-22.259 0h5.807c4.09 0 7.42 3.328 7.42 7.419v1.835a3.854 3.854 0 0 0-1.291-.222h-3.742a6.753 6.753 0 0 1-6.605-5.414l-2.53.506a9.257 9.257 0 0 0 1.64 3.696 8.055 8.055 0 0 1-4.246 1.212h-2.58a3.85 3.85 0 0 0-1.29.222v-1.835c0-4.091 3.327-7.42 7.418-7.42ZM9.032 17.65h-1.29a1.291 1.291 0 0 1 0-2.58h1.29v2.58Zm-1.29 9.032v-.797l-.714-.357a3.36 3.36 0 0 1-1.867-3.021v-.411c0-.276.034-.552.1-.82l.412-1.646c.599.38 1.308.6 2.068.6h1.29v.419a7.726 7.726 0 0 0 3.448 6.442l.424.282v.883l-3.481.87a9.11 9.11 0 0 0-.904.278 5.152 5.152 0 0 1-.777-2.722ZM5.16 44.102v-6.213c0-2.966 2.01-5.54 4.887-6.26l3.576-.894 3.15 4.725 3.15-4.725 3.576.894a6.437 6.437 0 0 1 3.336 2.067 9.019 9.019 0 0 0-1.03 4.192v5.918c-.38-.221-.82-.35-1.29-.35H11.612v-5.16h-2.58v6.146L7.878 46.75l2.308 1.154.933-1.867h13.397v3.871H10.967a5.813 5.813 0 0 1-5.806-5.806Zm3.935 34.193a3.232 3.232 0 0 1 3.162-2.58 3.232 3.232 0 0 1 3.16 2.58h-6.32Zm3.162-5.161a5.78 5.78 0 0 0-1.936.333v-8.075h5.161v8.723a5.773 5.773 0 0 0-3.226-.981Zm5.87 5.161a3.232 3.232 0 0 1 3.162-2.58 3.232 3.232 0 0 1 3.16 2.58H18.13Zm5.097-4.828a5.78 5.78 0 0 0-1.935-.333 5.773 5.773 0 0 0-3.226.981v-8.723h5.161v8.075Zm2.58-10.655H7.742v-2.268a11.84 11.84 0 0 1 3.136-8.057l.09.002h14.839v10.323Zm2.646-10.323h1.226c.452 0 .886-.079 1.29-.222v2.737a3.235 3.235 0 0 1-2.515-2.515Zm3.871 25.806a3.232 3.232 0 0 1 3.161-2.58 3.232 3.232 0 0 1 3.161 2.58h-6.322Zm3.161-5.161a5.78 5.78 0 0 0-1.935.333V52.489H46.45v20.978a5.78 5.78 0 0 0-1.935-.333 5.773 5.773 0 0 0-3.226.981V55.07h-2.58v19.045a5.773 5.773 0 0 0-3.227-.981Zm5.871 5.161a3.232 3.232 0 0 1 3.162-2.58 3.232 3.232 0 0 1 3.16 2.58h-6.322Zm7.678-23.29v-2.738c.404.143.838.222 1.29.222h1.225a3.235 3.235 0 0 1-2.515 2.516Zm6.516 23.29a3.232 3.232 0 0 1 3.161-2.58 3.232 3.232 0 0 1 3.161 2.58h-6.322Zm9.032 0a3.232 3.232 0 0 1 3.161-2.58 3.232 3.232 0 0 1 3.162 2.58H64.58Zm5.097-4.828a5.78 5.78 0 0 0-1.936-.333 5.773 5.773 0 0 0-3.225.981V55.07h-2.581v19.045a5.773 5.773 0 0 0-3.226-.981 5.78 5.78 0 0 0-1.935.333V52.489h12.258c.217 0 .432-.011.645-.027v21.005Zm5.161-29.365a5.813 5.813 0 0 1-5.806 5.806H55.483v-3.87H68.88l.934 1.867 2.308-1.154-1.154-2.309v-8.727h-2.58v7.742H55.483c-.47 0-.91.128-1.29.349v-5.917a9.02 9.02 0 0 0-1.03-4.193 6.434 6.434 0 0 1 3.336-2.066l.661-.166a6.463 6.463 0 0 0 6.065 4.25 6.463 6.463 0 0 0 6.065-4.25l.661.165a6.442 6.442 0 0 1 4.887 6.26v6.213Z"/>
</svg>
