<svg xmlns="http://www.w3.org/2000/svg" width="81.656" height="81.656" fill="none">
    <g stroke="#fff" stroke-linecap="round" stroke-linejoin="round" stroke-miterlimit="10" stroke-width="4">
        <path d="M68.888 13.992c6.67 6.974 10.768 16.425 10.768 26.836 0 21.444-17.384 38.828-38.828 38.828C19.384 79.656 2 62.272 2 40.828 2 19.384 19.384 2 40.828 2c9.067 0 17.408 3.11 24.017 8.317"/>
        <path d="M20.415 64.472c5.48 4.738 12.617 7.607 20.413 7.607 17.232 0 31.251-14.019 31.251-31.251 0-17.233-14.019-31.252-31.251-31.252-17.233 0-31.252 14.019-31.252 31.252a31.094 31.094 0 0 0 7.03 19.725"/>
        <path d="M45.699 21.888h8.07a5.999 5.999 0 0 1 5.999 5.998V53.77a5.999 5.999 0 0 1-5.999 5.999H27.885a5.999 5.999 0 0 1-5.998-5.999V27.886a5.999 5.999 0 0 1 5.998-5.998H40.23"/>
    </g>
</svg>
