<svg xmlns="http://www.w3.org/2000/svg" width="80" height="81" fill="none">
    <path fill="#fff" d="M73.548 24.102H51.286a10.362 10.362 0 0 0-4.834-6.354V15.07c0-7.827-6.368-14.194-14.194-14.194H19.355C11.529.876 5.16 7.243 5.16 15.07v2.679C2.08 19.536 0 22.87 0 26.682c0 2.611.976 4.997 2.58 6.817v35.764a6.459 6.459 0 0 0 6.452 6.452h35.332l1.647 3.294a3.36 3.36 0 0 0 3.021 1.867 3.36 3.36 0 0 0 3.021-1.868l1.647-3.294h19.848A6.459 6.459 0 0 0 80 69.263v-38.71a6.459 6.459 0 0 0-6.452-6.451Zm-24.516 2.58c0 3.365-2.157 6.233-5.161 7.299V19.383c3.004 1.066 5.161 3.934 5.161 7.298ZM20.58 18.941c1.362 0 2.641.53 3.604 1.492l1.622 1.622 1.623-1.622a5.063 5.063 0 0 1 3.604-1.492 5.102 5.102 0 0 1 5.096 5.096 6.052 6.052 0 0 1-2.7 5.045l-7.622 5.082-7.623-5.082a6.052 6.052 0 0 1-2.7-5.045 5.102 5.102 0 0 1 5.096-5.096Zm18.13 0h2.58v15.483h-2.58V18.941ZM7.742 15.07c0-6.404 5.21-11.613 11.613-11.613h12.903c6.404 0 11.613 5.21 11.613 11.613v1.616a10.308 10.308 0 0 0-2.58-.326H38.71a2.584 2.584 0 0 0-2.513 2.001 7.647 7.647 0 0 0-5.164-2.001 7.622 7.622 0 0 0-5.226 2.053 7.623 7.623 0 0 0-5.226-2.053c-1.987 0-3.8.759-5.165 2.001a2.584 2.584 0 0 0-2.513-2.001h-2.58c-.891 0-1.756.114-2.581.326V15.07Zm5.163 19.354h-2.582V18.941h2.58v5.112l.002 10.37Zm-5.163-15.04V33.98c-3.004-1.065-5.161-3.933-5.161-7.298 0-3.364 2.157-6.232 5.16-7.298Zm2.58 40.638V57.65h1.455a6.941 6.941 0 0 0 3.707 4.733v.509a10.235 10.235 0 0 0-3.04.875 4.367 4.367 0 0 1-2.121-3.745Zm22.212-10.787a5.377 5.377 0 0 1 5.095-7.07h7.323a5.377 5.377 0 0 1 5.095 7.07l-.224.673h-1.78a3.862 3.862 0 0 0-2.881-1.29c-2.277 0-4.482-.668-6.376-1.93l-1.274-.85-1.824.913a3.846 3.846 0 0 0-2.127 3.157h-.803l-.224-.673Zm39.724 10.787a4.367 4.367 0 0 1-2.12 3.745 10.231 10.231 0 0 0-3.041-.876v-.508a6.94 6.94 0 0 0 3.707-4.733h1.454v2.372Zm-6.86.275-.882.294v3.51a1.291 1.291 0 0 1-2.58.001V60.59l-.883-.294a4.365 4.365 0 0 1-2.988-4.146v-5.938c0-.492.273-.934.713-1.154l.484-.242.027.018a14.03 14.03 0 0 0 7.808 2.364c.711 0 1.29.579 1.29 1.29v3.662c0 1.884-1.2 3.55-2.988 4.146Zm-13.147 6.82a10.33 10.33 0 0 0-7.09-4.225v-.51a6.94 6.94 0 0 0 3.708-4.732h1.453a3.85 3.85 0 0 0 1.29-.222v2.594c0 2.034.887 3.924 2.364 5.221a10.274 10.274 0 0 0-1.725 1.873Zm-8.788-6.82-.882.294v3.51c0 .712-.58 1.291-1.29 1.291A1.292 1.292 0 0 1 40 64.102V60.59l-.882-.294a4.365 4.365 0 0 1-2.989-4.146v-5.938c0-.492.273-.934.714-1.154l.484-.242.027.018a14.031 14.031 0 0 0 7.807 2.364c.712 0 1.29.579 1.29 1.29v3.662a4.365 4.365 0 0 1-2.988 4.146Zm-13.133 6.82c-.5-.7-1.08-1.327-1.725-1.874a6.948 6.948 0 0 0 2.363-5.221v-2.594c.404.144.838.222 1.29.222h1.454a6.941 6.941 0 0 0 3.707 4.733v.509a10.328 10.328 0 0 0-7.09 4.225Zm-8.802-6.82-.883.294v3.51c0 .712-.579 1.291-1.29 1.291-.711 0-1.29-.579-1.29-1.29V60.59l-.883-.294a4.365 4.365 0 0 1-2.988-4.146v-5.938c0-1.072.495-2.054 1.326-2.685a2.867 2.867 0 0 1 1.254 2.38v1.29h7.742v4.953a4.365 4.365 0 0 1-2.988 4.146Zm1.698 2.086a6.94 6.94 0 0 0 3.707-4.733h1.454v2.371a4.367 4.367 0 0 1-2.11 3.739c-.953-.44-1.98-.737-3.051-.87v-.507Zm3.87-9.894h1.291c.073 0 .145.008.215.02a3.853 3.853 0 0 0 0 2.54c-.07.013-.142.02-.215.02h-1.29v-2.58Zm6.452 2.58h-1.29a1.291 1.291 0 0 1 0-2.58h1.29v2.58Zm21.936 0h-1.29c-.073 0-.145-.007-.216-.02a3.85 3.85 0 0 0 0-2.54c.071-.012.143-.02.216-.02h1.29v2.58Zm-5.161-2.58a1.291 1.291 0 0 1 0 2.58h-1.29v-2.58h1.29Zm5.98 11.271a4.367 4.367 0 0 1-2.11-3.738V57.65h1.455a6.941 6.941 0 0 0 3.707 4.733v.508a10.27 10.27 0 0 0-3.052.87Zm14.665-11.27h1.29a1.291 1.291 0 0 1 0 2.58h-1.29v-2.58Zm-.99-2.58a3.862 3.862 0 0 0-2.881-1.291 11.46 11.46 0 0 1-6.376-1.93l-1.273-.85-1.824.912a3.845 3.845 0 0 0-2.127 3.158h-1.21c.629-4.371 4.396-7.742 8.939-7.742 4.542 0 8.31 3.37 8.938 7.742H69.98Zm-43.23 0a2.58 2.58 0 0 0-2.232-1.291h-1.29v-.756a5.658 5.658 0 0 0-1.668-4.028l-1.825 1.825c.588.588.912 1.37.912 2.203v.756h-1.442a5.432 5.432 0 0 0-2.87-3.599l-.85-.424-.576.288a5.921 5.921 0 0 0-3.283 5.025h-1.208c.629-4.371 4.397-7.742 8.939-7.742s8.31 3.37 8.939 7.742h-1.546Zm-16.425 5.16a1.29 1.29 0 0 1 0-2.58h1.29v2.58h-1.29Zm5.409 10.395a3.877 3.877 0 0 0 3.623 2.509 3.877 3.877 0 0 0 3.623-2.51 7.697 7.697 0 0 1 5.956 4.357 10.277 10.277 0 0 0-.547 3.314H9.032c0-3.915 2.922-7.159 6.7-7.67Zm34.014 12.39a.793.793 0 0 1-.714.441.794.794 0 0 1-.713-.44l-2.36-4.72H30.968c0-3.916 2.922-7.16 6.7-7.67a3.877 3.877 0 0 0 3.622 2.508 3.877 3.877 0 0 0 3.623-2.509c3.778.511 6.7 3.755 6.7 7.67v.986l-1.867 3.734Zm4.448-4.72c0-1.159-.193-2.274-.547-3.314a7.696 7.696 0 0 1 5.956-4.357 3.877 3.877 0 0 0 3.623 2.51 3.877 3.877 0 0 0 3.623-2.509c3.777.511 6.7 3.755 6.7 7.67H54.194Zm23.225-3.871c0 1.165-.517 2.21-1.334 2.92a10.311 10.311 0 0 0-3.62-6.93 6.948 6.948 0 0 0 2.374-5.231v-3.36a3.862 3.862 0 0 0-.008-5.772c-.165-6.26-5.305-11.304-11.605-11.304-4.59 0-8.564 2.676-10.45 6.549-.664-3.718-3.918-6.55-7.824-6.55h-7.323c-3.906 0-7.16 2.832-7.825 6.55-1.885-3.873-5.86-6.55-10.45-6.55-6.3 0-11.44 5.044-11.604 11.305a3.862 3.862 0 0 0-.008 5.771v3.36c0 2.04.89 3.935 2.374 5.233a10.312 10.312 0 0 0-3.62 6.93 3.862 3.862 0 0 1-1.335-2.921V35.616a10.257 10.257 0 0 0 5.161 1.389h2.581a2.584 2.584 0 0 0 2.58-2.58v-4.227c.386.38.81.725 1.27 1.032l9.053 6.036 9.054-6.036c.46-.307.883-.653 1.269-1.032v4.226a2.584 2.584 0 0 0 2.58 2.581h2.581c5.692 0 10.323-4.63 10.323-10.323h21.935a3.875 3.875 0 0 1 3.871 3.871v38.71Z"/>
    <path fill="#fff" d="M56.773 29.263h2.581v2.58h-2.58v-2.58Zm5.162 0h2.581v2.58h-2.58v-2.58Zm5.163 0h2.58v2.58h-2.58v-2.58ZM42.58 55.825a1.812 1.812 0 0 1-1.29.535 1.81 1.81 0 0 1-1.29-.535l-.378-.378-1.825 1.825.378.378a4.377 4.377 0 0 0 3.115 1.29 4.377 4.377 0 0 0 3.115-1.29l.378-.378-1.825-1.825-.378.378Zm-21.935 0a1.812 1.812 0 0 1-1.29.535 1.81 1.81 0 0 1-1.29-.535l-.379-.378-1.825 1.825.378.378a4.377 4.377 0 0 0 3.116 1.29 4.377 4.377 0 0 0 3.115-1.29l.378-.378-1.825-1.825-.378.378Zm43.871 0a1.812 1.812 0 0 1-1.29.535 1.81 1.81 0 0 1-1.29-.535l-.379-.378-1.825 1.825.378.378a4.377 4.377 0 0 0 3.115 1.29 4.377 4.377 0 0 0 3.116-1.29l.378-.378-1.825-1.825-.378.378Z"/>
</svg>
