<svg xmlns="http://www.w3.org/2000/svg" width="42" height="42">
    <path fill="#C5478E" d="M32.708 15.234a1.02 1.02 0 0 0-.612-.204h-7.821l7.74-13.498A1.021 1.021 0 0 0 31.135 0H20.272a1.021 1.021 0 0 0-.919.592L8.98 22.34a1.021 1.021 0 0 0 .92 1.45h7.8l-5.616 16.95c-.098.473.15.95.593 1.143.44.231.984.11 1.286-.286l18.95-24.934a1.02 1.02 0 0 0-.204-1.429ZM16.045 35.553l4.125-12.539a1.021 1.021 0 0 0-.96-1.348h-7.617L20.905 1.94H29.4l-7.76 13.6a1.021 1.021 0 0 0 .878 1.532h7.536l-14.009 18.48Z"/>
</svg>
