<svg xmlns="http://www.w3.org/2000/svg" xml:space="preserve" width="395.505" height="91.806">
    <defs>
        <clipPath id="a" clipPathUnits="userSpaceOnUse">
            <path d="M0 841.89h595.28V0H0v841.89z"/>
        </clipPath>
    </defs>
    <g clip-path="url(#a)" transform="matrix(1.25 0 0 -1.25 -174.487 572.131)">
        <path d="M0 0v.063L-.007.061A2.967 2.967 0 0 1-5.919-.42h-.002v-41.853c0-2.17-.776-4.033-2.331-5.587-1.554-1.555-3.368-2.332-5.44-2.332-2.393 0-4.366.777-5.921 2.332-1.53 1.505-2.319 3.403-2.368 5.7v17.417h-.01l.002.055a2.962 2.962 0 0 1-3.084 2.827 2.957 2.957 0 0 1-2.826-2.896h-.004v-17.516c0-3.797 1.358-7.079 4.071-9.843 2.665-2.714 5.97-4.07 9.918-4.07 3.849 0 7.13 1.356 9.844 4.07C-1.357-49.401 0-46.122 0-42.273V-.4c.008.129.011.259.001.391L0 0" style="fill:#ffffff;fill-opacity:1;fill-rule:nonzero;stroke:none" transform="translate(201.208 440.446)"/>
        <path d="M0 0c1.009 0 1.868.364 2.578 1.093.71.729 1.065 1.596 1.065 2.606 0 1.027-.355 1.896-1.065 2.605C1.85 7.033.99 7.397 0 7.397c-1.009 0-1.869-.364-2.578-1.093a3.591 3.591 0 0 1-1.065-2.605c0-1.029.353-1.901 1.065-2.621A3.487 3.487 0 0 1 0 0" style="fill:#ffffff;fill-opacity:1;fill-rule:nonzero;stroke:none" transform="translate(260.363 446.628)"/>
        <path d="M0 0c-1.009 0-1.869-.364-2.579-1.093a3.598 3.598 0 0 1-1.064-2.605c0-1.029.354-1.901 1.064-2.621A3.49 3.49 0 0 1 0-7.397c1.009 0 1.868.364 2.578 1.093.711.729 1.065 1.596 1.065 2.606 0 1.027-.354 1.896-1.065 2.605C1.85-.364.99 0 0 0" style="fill:#ffffff;fill-opacity:1;fill-rule:nonzero;stroke:none" transform="translate(198.173 454.025)"/>
        <path d="M0 0c-.05-2.294-.84-4.194-2.369-5.697-1.579-1.555-3.404-2.332-5.477-2.332-2.145 0-4.057.777-5.736 2.332-1.652 1.528-2.479 3.428-2.479 5.697v13.619c.024 2.122.802 3.947 2.332 5.478 1.554 1.553 3.367 2.33 5.439 2.33 2.369 0 4.342-.777 5.921-2.33C-.84 17.591-.05 15.692 0 13.397V0zm-8.067 27.423c-3.849 0-7.13-1.358-9.843-4.072-2.715-2.714-4.071-5.994-4.071-9.843V-.11c0-3.849 1.356-7.131 4.071-9.845 2.713-2.714 5.994-4.07 9.843-4.07 3.847 0 7.141 1.356 9.88 4.07C4.551-7.241 5.921-3.959 5.921-.11v13.618c0 3.849-1.37 7.129-4.108 9.843-2.739 2.714-6.033 4.072-9.88 4.072" style="fill:#ffffff;fill-opacity:1;fill-rule:nonzero;stroke:none" transform="translate(226.212 413.086)"/>
        <path d="M0 0v6.771c0 2.171.777 4.035 2.332 5.589 1.553 1.554 3.367 2.33 5.438 2.33 2.371 0 4.343-.778 5.923-2.336 1.43-1.409 2.205-3.153 2.33-5.23L0 0zm21.98 6.771c0 3.998-1.37 7.278-4.106 9.844-2.886 2.714-6.181 4.072-9.881 4.072-3.848 0-7.13-1.358-9.845-4.072-2.713-2.714-4.069-5.994-4.069-9.844V-6.847c0-3.848 1.356-7.131 4.069-9.844 2.715-2.714 5.997-4.071 9.845-4.071 3.847 0 7.031 1.334 9.549 3.998C20.5-13.606 21.98-10.3 21.98-6.847v2.319a2.972 2.972 0 0 1-2.971 2.942 2.974 2.974 0 0 1-2.937-2.524l-.012.003v-.096a2.98 2.98 0 0 1-.024-.355 3 3 0 0 1 .024-.357v-1.821c-.05-2.294-.839-4.195-2.367-5.698-1.58-1.554-3.406-2.332-5.478-2.332-2.368 0-4.33.795-5.883 2.387C.777-10.788 0-8.822 0-6.479l21.98 9.772v3.478z" style="fill:#ffffff;fill-opacity:1;fill-rule:nonzero;stroke:none" transform="translate(373.107 419.822)"/>
        <path d="M0 0c-.05-2.294-.841-4.194-2.368-5.697-1.58-1.555-3.405-2.332-5.476-2.332-2.147 0-4.059.777-5.738 2.332-1.652 1.528-2.48 3.428-2.48 5.697v13.619c.026 2.122.803 3.947 2.333 5.478 1.555 1.553 3.368 2.33 5.44 2.33 2.368 0 4.341-.777 5.921-2.33C-.841 17.591-.05 15.692 0 13.397V0zm2.988 44.048a2.967 2.967 0 0 1-2.967-2.871L0 41.176V24.905c-2.344 1.678-5.032 2.518-8.067 2.518-3.849 0-7.128-1.358-9.843-4.072-2.714-2.714-4.07-5.994-4.07-9.843V-.11c0-3.849 1.356-7.131 4.07-9.845 2.715-2.714 5.994-4.07 9.843-4.07 3.848 0 7.143 1.356 9.88 4.07C4.552-7.241 5.922-3.959 5.922-.11v40.732c.022.149.038.299.038.454a2.972 2.972 0 0 1-2.972 2.972" style="fill:#ffffff;fill-opacity:1;fill-rule:nonzero;stroke:none" transform="translate(358.912 413.086)"/>
        <path d="M0 0c-.05-2.294-.838-4.194-2.368-5.697-1.58-1.555-3.403-2.332-5.476-2.332-2.147 0-4.059.777-5.738 2.332-1.652 1.528-2.48 3.428-2.48 5.697v2.235c.003.071.012.138.012.208v3.072l-.012-.004v8.108c.026 2.122.803 3.947 2.333 5.478 1.555 1.553 3.368 2.33 5.44 2.33 2.37 0 4.341-.777 5.921-2.33 1.53-1.506 2.318-3.405 2.368-5.7V0zm-8.067 27.423c-3.849 0-7.128-1.358-9.843-4.072-2.714-2.714-4.069-5.994-4.069-9.843V2.143c-.046-2.877-1.099-5.333-3.174-7.359-2.122-2.099-4.651-3.145-7.587-3.145-2.985 0-5.527 1.046-7.624 3.145-1.911 1.91-2.941 4.174-3.111 6.784V2.85l-.033-.004v22.688c0 2.961 1.047 5.483 3.144 7.568 2.097 2.085 4.639 3.127 7.624 3.127 2.936 0 5.465-1.048 7.587-3.145.863-.855 1.786-2.264 2.541-3.608a2.893 2.893 0 0 1 5.138 2.644l.007.004c-.806 1.772-1.962 3.413-3.469 4.919-3.207 3.233-7.141 4.848-11.804 4.848-4.614 0-8.549-1.609-11.804-4.828-3.257-3.22-4.886-7.1-4.886-11.638V2.443c0-.239.023-.467.032-.703-.027-3.936-.802-5.606-2.329-7.252-1.553-1.679-3.367-2.517-5.44-2.517-2.368 0-4.342.777-5.921 2.332-1.529 1.503-2.318 3.403-2.368 5.697v27.423l-.016-.002v.036a2.953 2.953 0 1 1-5.9-.249c0-.011.003-.021.003-.033h-.007V.271l-.025-.011c0-2.172-.777-4.095-2.332-5.772-1.554-1.679-3.368-2.517-5.44-2.517-2.369 0-4.341.777-5.921 2.332-1.529 1.503-2.319 3.403-2.367 5.697v41.468c.003.062.009.123.009.186a2.965 2.965 0 0 1-5.93 0v-.009h-.002V-.11c0-3.849 1.37-7.131 4.109-9.845 2.739-2.714 6.032-4.07 9.88-4.07 3.848 0 7.129 1.356 9.844 4.07.413.414.785.848 1.135 1.286.355-.438.729-.872 1.147-1.286 2.738-2.714 6.032-4.07 9.881-4.07s7.129 1.356 9.843 4.07a14.8 14.8 0 0 1 1.758 2.111c.386-.468.795-.927 1.243-1.37 3.23-3.207 7.166-4.811 11.804-4.811 4.613 0 8.548 1.611 11.804 4.83.45.445.861.906 1.249 1.376a15.002 15.002 0 0 1 1.777-2.136c2.715-2.714 5.994-4.07 9.843-4.07 3.848 0 7.143 1.356 9.882 4.07C4.552-7.241 5.922-3.959 5.922-.11v13.618c0 3.849-1.37 7.129-4.107 9.843-2.739 2.714-6.034 4.072-9.882 4.072" style="fill:#ffffff;fill-opacity:1;fill-rule:nonzero;stroke:none" transform="translate(328.538 413.086)"/>
        <path d="M0 0c-.689 0-1.379.262-1.905.788a2.697 2.697 0 0 0 0 3.811l17.846 17.846-17.846 17.847a2.695 2.695 0 1 0 3.812 3.811l19.752-19.752a2.692 2.692 0 0 0 0-3.811L1.907.788A2.687 2.687 0 0 0 0 0" style="fill:#e9ce37;fill-opacity:1;fill-rule:nonzero;stroke:none" transform="translate(433.546 396.935)"/>
        <path d="M0 0c-.689 0-1.378.263-1.905.789l-19.753 19.752a2.695 2.695 0 0 0 0 3.811l19.752 19.752a2.694 2.694 0 0 0 3.811 0 2.694 2.694 0 0 0 0-3.811l-17.847-17.847L1.905 4.6A2.694 2.694 0 0 0 0 0" style="fill:#e9ce37;fill-opacity:1;fill-rule:nonzero;stroke:none" transform="translate(162.037 397.637)"/>
        <path d="M0 0a2.694 2.694 0 0 0-2.49 3.723l21.248 51.558a2.695 2.695 0 1 0 4.983-2.053L2.493 1.671A2.695 2.695 0 0 0 0 0" style="fill:#e9ce37;fill-opacity:1;fill-rule:nonzero;stroke:none" transform="translate(401.738 390.904)"/>
    </g>
</svg>
