<svg width="230" height="90" xmlns="http://www.w3.org/2000/svg">
    <path d="m76.059 70.765-2.118 2.47c-1.412-1.588-3.706-2.647-5.824-2.647-4.235 0-7.411 3.177-7.411 7.236 0 4.235 3.353 7.235 7.411 7.235 2.118 0 4.236-1.059 5.824-2.47l2.118 2.293C73.94 87 70.94 88.235 67.94 88.235c-6 0-10.765-4.588-10.765-10.588 0-5.823 4.765-10.412 10.765-10.412 3.176.177 6.353 1.412 8.118 3.53Zm10.235 12.882-2.117 4.765H80.47l9.176-20.824h3.53l9.176 20.824h-3.706l-2.118-4.765H86.294Zm5.118-12.353-3.883 9.177h7.942l-4.06-9.177Zm36.176 16.941-.176-15.353-6.53 13.236h-2.294l-6.529-13.236v15.353h-3.177V67.588h4.236l6.706 13.765 6.705-13.765h4.236v20.647h-3.177Zm20.471-20.647c5.117 0 8.117 2.47 8.117 7.06 0 4.764-2.823 7.41-8.117 7.41h-4.765v6.177h-3.529V67.588h8.294Zm-4.765 11.294h4.588c3.177 0 4.941-1.411 4.941-4.235 0-2.647-1.941-3.882-4.941-3.882h-4.588v8.117Zm37.765.706c0 5.47-3.353 8.647-9 8.647s-9-3.353-9-8.647v-12h3.353v12c0 3.53 2.117 5.647 5.647 5.647 3.353 0 5.47-2.117 5.47-5.647v-12h3.53v12Zm22.764-10.058-1.412 3.176c-2.294-1.412-4.588-1.941-5.999-1.941-2.118 0-3.353.882-3.353 2.117 0 4.589 11.294 2.118 11.294 9.53 0 3.706-3.353 6-7.941 6-3.353 0-6.177-1.236-8.471-3.353l1.412-3.177c2.117 1.941 4.764 3.177 7.059 3.177 2.47 0 3.882-.883 3.882-2.47C200.294 78 189 80.47 189 73.234c0-3.53 3.176-5.823 7.412-5.823 2.823 0 5.47.882 7.411 2.117ZM144.529 1.588c-14.999 0-27.176 12.177-27.176 27.177S129.53 55.94 144.529 55.94c15 0 27.177-12.176 27.177-27.176 0-15-12.177-27.177-27.177-27.177Zm0 41.294a14.235 14.235 0 0 1-14.294-14.294 14.235 14.235 0 0 1 14.294-14.294 14.235 14.235 0 0 1 14.295 14.294 14.235 14.235 0 0 1-14.295 14.294ZM84.882 1.588c-15 0-27.176 12.177-27.176 27.177v25.94h12.882v-25.94A14.235 14.235 0 0 1 84.882 14.47a14.235 14.235 0 0 1 14.295 14.294v25.94h12.882v-25.94c0-14.824-12.353-27.177-27.177-27.177ZM46.059 2.824 12 88.235h13.941L60 2.824H46.059ZM28.412 29.647c0-1.588-.353-3.353-1.06-4.941L18.53 2.824H4.765l15.53 38.823c4.764-1.765 8.117-6.353 8.117-12Zm182.47-26.823-20.823 51.705h14.117l20.471-51.705h-13.765Zm-18.706 22.058-8.647-22.058h-14.117l15.529 38.823c4.765-1.941 8.118-6.353 8.118-12 .176-1.588-.353-3.353-.883-4.765Z" fill="#fff"/>
</svg>
